<?xml version="1.0" encoding="utf-8"?>
<!-- Generator: Adobe Illustrator 22.0.0, SVG Export Plug-In . SVG Version: 6.00 Build 0)  -->
<svg version="1.1" xmlns="http://www.w3.org/2000/svg" xmlns:xlink="http://www.w3.org/1999/xlink" x="0px" y="0px"
	 viewBox="0 0 178 205.1" style="enable-background:new 0 0 178 205.1;" xml:space="preserve">
<style type="text/css">
	.st0{fill:url(#XMLID_14_);}
	.st1{fill:url(#XMLID_15_);}
	.st2{fill:url(#XMLID_16_);}
	.st3{fill:url(#XMLID_17_);}
	.st4{fill:url(#XMLID_18_);}
</style>
<g id="Layer_1">
</g>
<g id="Layer_3">
	<g>
		<g id="XMLID_11_">
			<g id="XMLID_3_">
				<linearGradient id="XMLID_14_" gradientUnits="userSpaceOnUse" x1="17.8333" y1="104.5094" x2="162.7688" y2="104.5094">
					<stop  offset="0" style="stop-color:#EE2739"/>
					<stop  offset="1.823650e-02" style="stop-color:#E32637"/>
					<stop  offset="0.1055" style="stop-color:#C92331"/>
					<stop  offset="0.1852" style="stop-color:#BA222D"/>
					<stop  offset="0.25" style="stop-color:#B5212C"/>
				</linearGradient>
				<path id="XMLID_7_" class="st0" d="M90.3,20.5c12.3,6.9,24.4,13.8,36.4,20.8c12,7,24,13.9,36,20.8c-3.6,2.4-7.1,4.5-10.5,6.4
					c-3.4,1.9-7.1,3.9-10.9,6c-8.3-4.8-16.7-9.6-25.2-14.6c-8.5-5-16.9-9.8-25.2-14.6c-8.7,4.8-17.3,9.6-25.8,14.7
					c-8.5,5-17.1,10-25.8,15v58.8c2.1,1.2,4.3,2.4,6.5,3.6c2.2,1.2,4.4,2.4,6.5,3.6c6.3,3.6,12.7,7.3,19,11.3s12.7,7.7,19,11.3
					c8.7-5,17.3-10,25.8-14.8c8.5-4.9,16.9-9.8,25.2-14.8l21.4,12.5c-12,7.1-24,14.2-35.9,21.1c-11.9,6.9-23.9,14-35.9,21.1
					c-12.5-7.1-24.8-14.2-36.7-21.1c-11.9-6.9-24.1-14-36.3-21.1v-44.5V62.6c12-7.1,24.1-14.2,36.2-21.1
					C66.2,34.6,78.3,27.6,90.3,20.5z"/>
			</g>
			<g id="XMLID_2_">
				<linearGradient id="XMLID_15_" gradientUnits="userSpaceOnUse" x1="18.239" y1="125.0394" x2="163.175" y2="125.0394">
					<stop  offset="0.2194" style="stop-color:#EE2739"/>
					<stop  offset="0.7653" style="stop-color:#B5212C"/>
				</linearGradient>
				<path id="XMLID_9_" class="st1" d="M39.6,75.2c1.2,0.9,2.5,1.8,3.9,2.6c1.4,0.8,2.7,1.5,3.9,2.2c9,5.4,18,10.7,27,15.7
					c9,5.1,18,10.3,27,15.7c7.8,4.5,15.5,8.9,23.3,13.2c7.7,4.3,15.6,8.8,23.7,13.6c2.4,1.5,4.9,2.9,7.4,4.5c2.6,1.5,5,3,7.4,4.5
					c-12,6.9-24,13.8-35.9,20.8c-11.9,7-23.9,13.9-35.9,20.8c-12.3-6.9-24.4-13.8-36.2-20.8c-11.9-7-24-13.9-36.2-20.8
					c3.3-2.4,6.8-4.5,10.5-6.4c3.7-1.9,7.3-3.9,10.9-6c8.3,5,16.7,10,25.2,14.9c8.5,4.9,17.1,9.8,25.8,14.8c4.8-3,9.6-5.9,14.6-8.6
					c4.9-2.7,9.8-5.6,14.6-8.6c-2.1-1.5-4.2-2.7-6.2-3.9c-2-1.1-4.1-2.4-6.2-3.9c-14.9-8.7-29.9-17.3-44.8-25.6
					c-15-8.4-29.9-17.1-44.8-26c0-4.2,0.1-8.4,0.2-12.5c0.1-4.1,0.1-8-0.2-11.9C30.5,56.2,48.6,70.5,39.6,75.2z"/>
			</g>
			<g id="XMLID_4_">
				<linearGradient id="XMLID_16_" gradientUnits="userSpaceOnUse" x1="18.8333" y1="47.7824" x2="163.7688" y2="47.7824">
					<stop  offset="0" style="stop-color:#EE2739"/>
					<stop  offset="6.650424e-02" style="stop-color:#E62738"/>
					<stop  offset="0.1411" style="stop-color:#D62534"/>
					<stop  offset="0.2193" style="stop-color:#C0222F"/>
					<stop  offset="0.25" style="stop-color:#B5212C"/>
				</linearGradient>
				<path id="XMLID_5_" class="st2" d="M91.3,20.5c12.3,6.9,24.4,13.8,36.4,20.8c12,7,24,13.9,36,20.8c-3.6,2.4-7.1,4.5-10.5,6.4
					c-3.4,1.9-7.1,3.9-10.9,6c-8.3-4.8-16.7-9.6-25.2-14.6c-8.5-5-16.9-9.8-25.2-14.6c-8.7,4.8-17.3,9.6-25.8,14.7
					c-8.5,5-17.1,10-25.8,15L18.8,62.6c12-7.1,24.1-14.2,36.2-21.1C67.2,34.6,79.3,27.6,91.3,20.5z"/>
			</g>
			<linearGradient id="XMLID_17_" gradientUnits="userSpaceOnUse" x1="48.3998" y1="83.3434" x2="163.7688" y2="83.3434">
				<stop  offset="0" style="stop-color:#EE2739"/>
				<stop  offset="4.984259e-02" style="stop-color:#E02636"/>
				<stop  offset="0.1918" style="stop-color:#CC2331"/>
				<stop  offset="0.3575" style="stop-color:#BF222F"/>
				<stop  offset="0.5671" style="stop-color:#B7212D"/>
				<stop  offset="0.9643" style="stop-color:#B5212C"/>
			</linearGradient>
			<polyline id="XMLID_13_" class="st3" points="163.8,62 69.7,117.5 48.4,105.4 141.4,49.2 			"/>
		</g>
		<linearGradient id="XMLID_18_" gradientUnits="userSpaceOnUse" x1="48.3998" y1="83.3434" x2="163.7688" y2="83.3434">
			<stop  offset="0" style="stop-color:#EE2739"/>
			<stop  offset="4.984259e-02" style="stop-color:#E02636"/>
			<stop  offset="0.1918" style="stop-color:#CC2331"/>
			<stop  offset="0.3575" style="stop-color:#BF222F"/>
			<stop  offset="0.5671" style="stop-color:#B7212D"/>
			<stop  offset="0.9643" style="stop-color:#B5212C"/>
		</linearGradient>
		<polyline id="XMLID_1_" class="st4" points="163.8,62 69.7,117.5 48.4,105.4 141.4,49.2 		"/>
	</g>
</g>
<g id="Layer_2">
</g>
</svg>
